<svg class="svg-icon" style="width:100%; height:100%;vertical-align: middle;fill: currentColor;overflow: hidden;" viewBox="0 0 1000 1000" version="1.1" xmlns="http://www.w3.org/2000/svg"><path d="M768 789.333333a64 64 0 0 1-64-64 64 64 0 0 1 64-64 64 64 0 0 1 64 64 64 64 0 0 1-64 64m64-384l83.626667 106.666667H725.333333V405.333333m-469.333333 384A64 64 0 0 1 192 725.333333 64 64 0 0 1 256 661.333333 64 64 0 0 1 320 725.333333 64 64 0 0 1 256 789.333333M853.333333 341.333333h-128V170.666667H128c-47.36 0-85.333333 37.973333-85.333333 85.333333v469.333333h85.333333a128 128 0 0 0 128 128 128 128 0 0 0 128-128h256a128 128 0 0 0 128 128 128 128 0 0 0 128-128h85.333333v-213.333333l-128-170.666667z" fill="#FF6384" /></svg>